<svg xmlns="http://www.w3.org/2000/svg" viewBox="0 0 490 490" id="vector">
    <path id="path" d="M 490.571 149.125 C 490.571 142.64 485.314 137.383 478.829 137.383 L 474.589 137.383 C 473.487 93.605 437.558 58.324 393.519 58.324 C 377.092 58.324 361.799 63.247 349.01 71.675 C 336.222 63.247 320.929 58.324 304.501 58.324 C 260.462 58.324 224.533 93.605 223.43 137.383 L 11.743 137.383 C 5.258 137.383 0 142.639 0 149.126 L 0 420.506 C 0 426.991 5.258 432.248 11.743 432.248 L 478.829 432.248 C 485.314 432.248 490.571 426.991 490.571 420.505 L 490.571 149.125 Z M 312.395 160.867 L 312.395 191.851 L 246.863 191.851 L 246.863 160.867 L 312.395 160.867 Z M 349.01 102.867 C 356.801 112.328 361.624 124.309 362.088 137.383 L 335.934 137.383 C 336.396 124.309 341.22 112.327 349.01 102.867 Z M 467.087 160.867 L 467.087 240.78 L 335.88 240.78 L 335.88 160.867 L 467.087 160.867 Z M 246.863 215.338 L 312.395 215.338 L 312.395 240.781 L 246.863 240.781 L 246.863 215.338 L 246.863 215.338 Z M 451.105 137.383 L 385.572 137.383 C 385.103 118.741 378.333 101.64 367.292 88.149 C 375.165 84.107 384.076 81.81 393.519 81.81 C 424.608 81.809 450.012 106.555 451.105 137.383 Z M 304.501 81.809 C 313.944 81.809 322.855 84.106 330.728 88.148 C 319.686 101.639 312.917 118.741 312.447 137.382 L 246.914 137.382 C 248.008 106.555 273.412 81.809 304.501 81.809 Z M 223.378 160.867 L 223.378 240.78 L 23.485 240.78 L 23.485 160.867 L 223.378 160.867 Z" fill="#8c8c8c"/>
</svg>